<?xml version="1.0" standalone="no"?><!DOCTYPE svg PUBLIC "-//W3C//DTD SVG 1.1//EN" "http://www.w3.org/Graphics/SVG/1.1/DTD/svg11.dtd"><svg class="icon" style="" viewBox="0 0 1024 1024" version="1.1" xmlns="http://www.w3.org/2000/svg" p-id="1477" xmlns:xlink="http://www.w3.org/1999/xlink" width="200" height="200"><defs><style type="text/css"><![CDATA[

]]></style></defs><path d="M0 312.4972v411.278336h214.319104c7.9575-45.2915 47.3979-79.7379 94.9699-79.7379 47.572 0 87.0124 34.4463 94.9699 79.7379h53.182464V312.497152H0zM228.0243 518.1358H89.532416V379.64492799999994h138.491904V518.135808zM404.9828 518.1358H266.49088V379.64492799999994h138.491904V518.135808zM307.7612 669.2178c-44.0381 0-79.7379 35.6997-79.7379 79.7379 0 44.0381 35.6997 79.7379 79.7379 79.7379s79.7379-35.6997 79.7379-79.7379C387.499 704.9175 351.7993 669.2178 307.7612 669.2178zM307.7612 778.3322c-16.2243 0-29.3765-13.1523-29.3765-29.3765 0-16.2243 13.1523-29.3765 29.3765-29.3765 16.2243 0 29.3775 13.1523 29.3775 29.3765C337.1387 765.1799 323.9864 778.3322 307.7612 778.3322zM566.5567 312.4972v411.278336H780.874752c7.9575-45.2915 47.3979-79.7379 94.9699-79.7379 47.572 0 87.0124 34.4463 94.9699 79.7379h53.182464V536.164352l-27.9777-167.7107c0 0 41.9676-55.9565 11.1913-55.9565C990.4241 312.4972 566.5567 312.4972 566.5567 312.4972zM794.581 518.1358H656.089088V379.64492799999994h138.491904V518.135808zM976.4352 530.7259 833.0476 518.1358V379.64492799999994h114.01113600000001L976.4352 530.7259zM509.9008 713.2836c0 5.7948-5.6371 10.4919-12.5901 10.4919l0 0c-6.953 0-12.5901-4.6971-12.5901-10.4919V322.989056c0-5.7948 5.6371-10.4919 12.5901-10.4919l0 0c6.953 0 12.5901 4.6971 12.5901 10.4919V713.2835839999999zM551.8674 713.2836c0 5.7948-5.6371 10.4919-12.5901 10.4919l0 0c-6.953 0-12.5901-4.6971-12.5901-10.4919V322.989056c0-5.7948 5.6371-10.4919 12.5901-10.4919l0 0c6.953 0 12.5901 4.6971 12.5901 10.4919V713.2835839999999zM875.0152 669.2178c-44.0381 0-79.7379 35.6997-79.7379 79.7379 0 44.0381 35.6997 79.7379 79.7379 79.7379 44.0381 0 79.7379-35.6997 79.7379-79.7379C954.752 704.9175 919.0523 669.2178 875.0152 669.2178zM875.0152 778.3322c-16.2243 0-29.3775-13.1523-29.3775-29.3765 0-16.2243 13.1523-29.3765 29.3775-29.3765 16.2243 0 29.3765 13.1523 29.3765 29.3765C904.3917 765.1799 891.2394 778.3322 875.0152 778.3322z" p-id="1478"></path></svg>