<?xml version="1.0" standalone="no"?><!DOCTYPE svg PUBLIC "-//W3C//DTD SVG 1.1//EN" "http://www.w3.org/Graphics/SVG/1.1/DTD/svg11.dtd"><svg class="icon" style="" viewBox="0 0 1024 1024" version="1.1" xmlns="http://www.w3.org/2000/svg" p-id="2370" xmlns:xlink="http://www.w3.org/1999/xlink" width="200" height="200"><defs><style type="text/css"><![CDATA[

]]></style></defs><path d="M955.785897 498.190483 955.785897 394.288065c0-20.479427 1.439792-42.75271-2.38328-60.054771-8.404414-38.026058-26.573215-70.789253-52.42807-91.512227-22.224164-17.810644-46.416146-31.927153-78.642105-40.035832-20.388353-5.129834-46.054919-4.29277-71.494311-4.2897L227.507062 198.395536c-5.242398 0.476861-10.485819 0.953721-15.728216 1.430582-12.320607 2.349511-24.882714 4.357238-35.747155 8.579399-45.038776 17.501606-81.118506 47.158043-100.091626 90.557482-16.500812 37.745672-13.348006 96.90812-13.344936 152.043858l0 98.662067c0 25.094538-0.838088 50.665936 4.2897 70.539566 12.770861 49.502437 45.304835 86.774319 87.221504 107.23942 0.476861-4.448312 0.953721-8.895601 1.429559-13.344936 2.38328-8.895601 4.767584-17.794271 7.148817-26.690896 15.2094-36.991496 45.291532-63.110363 85.316108-75.308173 73.577762-22.419616 134.348847 22.523993 157.286256 67.684542 7.236821 14.247492 17.624403 42.531676 10.961656 65.770959l0 1.429559L599.272157 746.988965c-6.291287-22.068621 2.638083-48.489364 9.05626-63.388702 18.669198-43.349297 78.92863-91.287099 149.181671-73.878614 55.617715 13.780865 101.557 52.267411 103.427604 119.154797 41.196261-19.956517 73.626881-53.649897 88.174202-100.089579C959.823863 594.584903 955.788967 542.109762 955.785897 498.190483zM278.505573 427.65194c-2.328022 7.567349-7.937786 14.478759-13.821797 18.588357-10.302647 7.192819-27.470655 6.196119-45.279253 6.195096-37.025265-0.001023-69.26862 5.491061-82.931804-19.064194-3.922333-7.049556-3.337002-18.035772-3.337002-29.074176 0-21.974477-4.143367-64.702628 4.2897-78.643128 7.126304-11.780301 16.025998-12.193717 30.026874-17.634636 31.322379-0.190335 82.388429-5.14723 100.090603 8.579399 5.006014 3.8814 9.549493 11.280928 11.438517 18.111496 0.318248 10.008958 0.636496 20.018939 0.954745 30.026874C279.935132 383.044999 283.169803 412.494729 278.505573 427.65194zM480.593198 427.175079c-2.212388 7.353478-7.65433 14.582113-13.345959 18.58938-10.487865 7.383154-26.941606 6.67298-45.279253 6.671956-35.227316-0.001023-68.753897 5.375427-82.455967-17.158798-7.592932-12.488429-8.308223-96.104825-0.476861-109.145839 7.15905-11.920494 15.987113-12.549827 30.026874-18.111496 32.574906-0.197498 88.542592-5.931083 103.427604 11.43954 4.134157 4.825912 7.643074 11.166317 9.05626 18.587334l0 26.215058C481.546919 380.809075 484.638327 413.728836 480.593198 427.175079zM682.203962 428.128801c-2.264577 6.568602-7.229658 13.348006-12.393261 17.157775-10.558473 7.794523-26.917046 7.14984-45.75509 7.148817-34.085306-0.001023-69.396533 4.516874-82.45392-16.680914-8.862855-14.389732-4.765537-56.249095-4.767584-79.119989 0-11.683087-0.470721-22.762423 3.813862-30.026874 7.895831-13.384845 15.32094-12.685927 30.505781-18.588357 31.332612-0.190335 82.375126-5.1503 100.089579 8.579399 5.573949 4.320399 10.118452 12.032034 11.915377 20.017916 0.159636 9.213849 0.319272 18.429745 0.478907 27.644617C683.63352 382.117884 687.179276 413.697113 682.203962 428.128801zM884.291586 427.175079c-2.27788 7.532557-7.561209 14.475689-13.345959 18.58938-10.435677 7.41897-26.978445 6.67298-45.279253 6.671956-35.31225-0.001023-68.62496 5.329379-82.454944-17.158798-8.473999-13.779841-7.761778-97.340979 0.476861-110.576421 6.859221-11.017938 15.923668-11.45796 29.075199-16.681938 33.584909-0.201591 89.611947-6.16235 104.379279 12.392238 3.604084 4.530177 6.824429 10.460236 8.101515 17.158798l0 26.214035C885.244284 380.4018 888.367415 413.69609 884.291586 427.175079zM279.936155 638.796848c-9.954723 3.871167-21.076014 2.706645-30.027897 6.195096-26.328645 10.256598-46.445822 29.441543-56.717769 55.766095C168.799986 763.256464 229.336734 833.516668 293.281091 823.724651c41.636283-6.376221 69.626777-24.799826 83.885526-58.147328C406.830217 696.201256 346.075505 637.924991 279.936155 638.796848zM723.193515 638.796848c-10.351766 4.022617-21.700231 3.028986-30.979572 6.671956-24.921599 9.780761-44.812625 28.682249-54.812373 53.381791-25.330922 62.578244 23.839965 111.370507 71.01745 122.491799 7.435343 1.752924 18.676361 3.954055 28.598338 2.382257 39.191604-6.206352 68.216661-23.173792 81.97706-54.335513C850.061994 699.039907 793.784246 637.774565 723.193515 638.796848z" p-id="2371" fill="#2c2c2c"></path></svg>